<?xml version="1.0" standalone="no"?>
<!DOCTYPE svg PUBLIC "-//W3C//DTD SVG 20010904//EN"
 "http://www.w3.org/TR/2001/REC-SVG-20010904/DTD/svg10.dtd">
<svg version="1.0" xmlns="http://www.w3.org/2000/svg"
 width="236.000000pt" height="89.000000pt" viewBox="0 0 236.000000 89.000000"
 preserveAspectRatio="xMidYMid meet">

<g transform="translate(0.000000,89.000000) scale(0.100000,-0.100000)"
fill="#1c3342" stroke="none">
<path d="M317 510 c-92 -159 -167 -292 -167 -295 0 -3 75 84 167 194 139 167
169 198 177 183 5 -9 47 -99 92 -200 55 -120 79 -184 71 -187 -7 -2 -113 -21
-236 -42 l-224 -38 333 -3 c183 -1 335 0 338 2 2 3 -11 31 -29 63 -80 141
-333 580 -344 595 -9 14 -37 -27 -178 -272z"/>
<path d="M924 550 c-32 -13 -64 -59 -64 -92 0 -41 26 -87 54 -94 41 -10 91 -1
94 18 3 15 -2 17 -26 12 -40 -8 -69 9 -77 46 -11 48 16 80 65 80 28 0 40 4 40
14 0 24 -45 33 -86 16z"/>
<path d="M2074 549 c-9 -16 18 -30 33 -17 7 6 10 14 7 19 -7 13 -31 11 -40 -2z"/>
<path d="M1062 484 c-16 -11 -22 -25 -22 -53 0 -47 24 -71 72 -71 44 0 68 25
68 73 0 41 -27 67 -70 67 -14 0 -36 -7 -48 -16z m73 -54 c0 -31 -3 -35 -25
-35 -19 0 -26 6 -28 23 -5 36 5 54 30 50 19 -2 23 -9 23 -38z"/>
<path d="M1220 430 c0 -63 2 -70 20 -70 17 0 20 7 20 50 0 37 4 52 16 57 22 8
34 -14 34 -64 0 -36 3 -43 20 -43 17 0 20 7 20 50 0 37 4 52 16 57 22 8 34
-14 34 -64 0 -36 3 -43 20 -43 17 0 20 7 20 44 0 85 -27 114 -80 86 -13 -7
-21 -7 -25 0 -8 13 -48 13 -62 -1 -8 -8 -13 -8 -17 0 -4 6 -14 11 -22 11 -11
0 -14 -16 -14 -70z"/>
<path d="M1477 493 c-4 -3 -7 -35 -7 -70 0 -56 2 -63 20 -63 17 0 20 7 20 43
0 43 13 67 37 67 9 0 13 -17 13 -55 0 -48 2 -55 20 -55 16 0 20 7 20 36 0 41
15 74 34 74 18 0 26 -22 26 -71 0 -28 4 -39 15 -39 12 0 15 13 15 59 0 71 -16
91 -61 74 -17 -7 -31 -7 -35 -2 -7 13 -51 11 -60 -2 -4 -8 -9 -8 -17 0 -12 12
-30 14 -40 4z"/>
<path d="M1730 441 c0 -35 5 -63 13 -69 6 -5 36 -10 65 -10 l52 0 0 70 c0 61
-2 69 -17 66 -14 -2 -19 -15 -21 -56 -3 -48 -5 -53 -25 -50 -19 3 -22 10 -25
56 -3 44 -6 52 -23 52 -17 0 -19 -7 -19 -59z"/>
<path d="M1907 493 c-4 -3 -7 -35 -7 -70 0 -56 2 -63 20 -63 17 0 20 7 20 39
0 52 8 71 30 71 22 0 30 -19 30 -71 0 -32 3 -39 20 -39 17 0 20 7 20 43 0 23
-3 52 -6 65 -8 27 -48 39 -71 21 -13 -11 -17 -11 -20 -1 -5 13 -25 16 -36 5z"/>
<path d="M2077 493 c-4 -3 -7 -35 -7 -70 0 -56 2 -63 20 -63 18 0 20 7 20 70
0 52 -3 70 -13 70 -8 0 -17 -3 -20 -7z"/>
<path d="M2167 493 c-18 -17 -5 -29 28 -25 48 6 45 -15 -4 -28 -43 -11 -56
-31 -41 -60 8 -15 21 -18 65 -18 l55 1 0 52 c0 38 -5 56 -18 68 -18 17 -73 23
-85 10z m63 -82 c0 -5 -7 -14 -15 -21 -18 -15 -42 1 -31 19 8 13 46 15 46 2z"/>
<path d="M414 377 c-21 -18 -27 -32 -27 -65 0 -26 7 -50 17 -61 31 -34 116
-36 116 -4 0 11 -7 13 -25 9 -19 -5 -32 0 -50 18 -29 29 -31 43 -9 74 11 15
25 22 50 22 24 0 34 5 34 15 0 25 -74 19 -106 -8z"/>
</g>
</svg>
