
        <svg xmlns="http://www.w3.org/2000/svg" xmlns:xlink="http://www.w3.org/1999/xlink" version="1.1" width="3208.3333333333335" 
        height="977.0833333333333" viewBox="0 0 3208.3333333333335 977.0833333333333">
			
			<g transform="scale(10.416666666666666) translate(10, 10)">
				<defs id="SvgjsDefs3898"></defs><g id="SvgjsG3899" featureKey="symbolContainer" transform="matrix(0.8999999761581421,0,0,0.8999999761581421,0,0)" fill="#faf0e6"><rect xmlns="http://www.w3.org/2000/svg" width="75" height="82" rx="10" ry="10"></rect></g><g id="SvgjsG3900" featureKey="monogramFeature-0" transform="matrix(0.9964478015899658,0,0,0.9964478015899658,13.009005316772353,-1.8720752348999987)" fill="#352f44"><path d="M37.825 23.167 c0.62982 0.50848 0.22805 1.6833 -0.7908 2.9366 c-1.0157 1.268 -2.6504 2.6561 -4.3626 3.9469 s-3.4893 2.5073 -4.789 3.4327 c-1.3118 0.91842 -2.1018 1.5444 -2.119 1.4395 c-0.21545 -0.56947 -0.94572 -1.2743 -1.9855 -1.5877 c-0.50719 -0.16336 -1.0589 -0.2441 -1.5883 -0.23648 c-0.48557 -0.008262 -1.1504 0.13096 -1.7872 0.40172 c-1.3004 0.53197 -2.6961 1.6379 -3.8083 3.1035 c-1.1282 1.4682 -1.9455 3.2434 -2.3561 5.0929 c-0.39914 1.8502 -0.3661 3.7124 0.15 5.2162 c0.24152 0.76014 0.63876 1.4383 1.1745 2.1101 c0.54785 0.654 1.2476 1.2641 2.072 1.7675 c1.6589 1.0163 3.7092 1.5934 5.9026 1.6137 c2.1832 0.033047 4.4515 -0.47795 6.5232 -1.4917 c0.88284 -0.42263 2.0987 0.2949 2.9497 1.3601 c0.83706 1.0468 1.1708 2.5709 0.067386 3.4906 c-2.5728 1.8698 -5.6146 3.1778 -8.8782 3.7136 c-3.244 0.54662 -6.789 0.30445 -10.106 -0.96546 c-1.6613 -0.63306 -3.2789 -1.5356 -4.7509 -2.7235 c-1.4567 -1.1949 -2.7889 -2.6904 -3.7614 -4.3842 c-1.9805 -3.3889 -2.6586 -7.1652 -2.5722 -10.742 c0.10998 -3.5936 0.996 -7.1472 2.6211 -10.405 c1.6277 -3.2554 4.0047 -6.3264 7.3488 -8.6982 c1.6779 -1.1822 3.5522 -2.1508 5.7252 -2.7991 c2.1279 -0.63306 4.3397 -0.89874 6.5532 -0.80526 c2.2131 0.095976 4.4383 0.54533 6.5796 1.4116 c2.1387 0.85926 4.1999 2.1311 5.9884 3.8007 z"></path></g><g id="SvgjsG3901" featureKey="nameFeature-0" transform="matrix(1.1776067018508911,0,0,1.1776067018508911,86.11582667677234,5.869189726992053)" fill="#faf0e6"><path d="M20.322 27.345 c1.213 0 2.196 0.98328 2.196 2.196 c0 5.7668 -4.692 10.459 -10.459 10.459 s-10.459 -4.692 -10.459 -10.459 l0 -7.0824 c0 -5.7668 4.692 -10.459 10.459 -10.459 s10.459 4.692 10.459 10.459 c0 1.2128 -0.98328 2.196 -2.196 2.196 s-2.196 -0.98328 -2.196 -2.196 c0 -3.3452 -2.7215 -6.0668 -6.0668 -6.0668 s-6.0668 2.7215 -6.0668 6.0668 l0 7.0824 c0 3.3452 2.7215 6.0668 6.0668 6.0668 s6.0668 -2.7215 6.0668 -6.0668 c0 -1.2128 0.98328 -2.196 2.196 -2.196 z M34.478 19.412 c5.6764 0 10.294 4.6176 10.294 10.294 s-4.6176 10.294 -10.294 10.294 s-10.294 -4.6176 -10.294 -10.294 s4.6176 -10.294 10.294 -10.294 z M34.478 35.608 c3.2543 0 5.902 -2.6476 5.902 -5.902 s-2.6476 -5.902 -5.902 -5.902 s-5.902 2.6476 -5.902 5.902 s2.6476 5.902 5.902 5.902 z M65.997 19.412 c4.4008 0 7.9804 3.5802 7.9804 7.9804 l0 10.412 c0 1.2128 -0.98328 2.196 -2.196 2.196 s-2.196 -0.98328 -2.196 -2.196 l0 -10.412 c0 -1.9784 -1.6097 -3.5881 -3.5884 -3.5881 c-1.9784 0 -3.5881 1.6094 -3.5881 3.5881 l0 10.412 c0 1.2128 -0.98328 2.196 -2.196 2.196 s-2.196 -0.98328 -2.196 -2.196 l0 -10.412 c0 -1.9784 -1.6094 -3.5881 -3.5881 -3.5881 s-3.5884 1.6094 -3.5884 3.5881 l0 10.412 c0 1.2128 -0.98328 2.196 -2.196 2.196 s-2.196 -0.98328 -2.196 -2.196 l0 -16.196 c0 -1.2128 0.98328 -2.196 2.196 -2.196 c0.78592 0 1.4736 0.4142 1.8615 1.0349 c1.1595 -0.65744 2.4978 -1.0349 3.923 -1.0349 c2.2748 0 4.3288 0.9586 5.784 2.4912 c1.4549 -1.5326 3.509 -2.4912 5.784 -2.4912 z M95.181 19.412 c4.4008 0 7.9804 3.5802 7.9804 7.9804 l0 10.412 c0 1.2128 -0.98328 2.196 -2.196 2.196 s-2.196 -0.98328 -2.196 -2.196 l0 -10.412 c0 -1.9784 -1.6097 -3.5881 -3.5884 -3.5881 c-1.9784 0 -3.5881 1.6094 -3.5881 3.5881 l0 10.412 c0 1.2128 -0.98328 2.196 -2.196 2.196 s-2.196 -0.98328 -2.196 -2.196 l0 -10.412 c0 -1.9784 -1.6094 -3.5881 -3.5881 -3.5881 s-3.5884 1.6094 -3.5884 3.5881 l0 10.412 c0 1.2128 -0.98328 2.196 -2.196 2.196 s-2.196 -0.98328 -2.196 -2.196 l0 -16.196 c0 -1.2128 0.98328 -2.196 2.196 -2.196 c0.78592 0 1.4736 0.4142 1.8615 1.0349 c1.1595 -0.65744 2.4978 -1.0349 3.923 -1.0349 c2.2748 0 4.3288 0.9586 5.784 2.4912 c1.4549 -1.5326 3.509 -2.4912 5.784 -2.4912 z M123.208 19.412 c1.2128 0 2.196 0.98328 2.196 2.196 l0 8.098 c0 5.6764 -4.6176 10.294 -10.294 10.294 s-10.294 -4.6176 -10.294 -10.294 l0 -8.098 c0 -1.2128 0.98328 -2.196 2.196 -2.196 s2.196 0.98328 2.196 2.196 l0 8.098 c0 3.2543 2.6476 5.902 5.902 5.902 s5.902 -2.6476 5.902 -5.902 l0 -8.098 c0 -1.2128 0.98328 -2.196 2.196 -2.196 z M135.0604 19.412 c4.4004 0 7.98 3.5802 7.98 7.9804 l0 10.412 c0 1.2128 -0.98328 2.196 -2.196 2.196 s-2.196 -0.98328 -2.196 -2.196 l0 -10.412 c0 -1.9784 -1.6094 -3.5881 -3.5881 -3.5881 s-3.5881 1.6094 -3.5881 3.5881 l0 10.412 c0 1.2128 -0.98328 2.196 -2.196 2.196 s-2.196 -0.98328 -2.196 -2.196 l0 -16.196 c0 -1.2128 0.98328 -2.196 2.196 -2.196 c0.78592 0 1.4733 0.4142 1.8615 1.0349 c1.1592 -0.65744 2.4975 -1.0349 3.9227 -1.0349 z M146.93999999999997 19.412 c1.2128 0 2.196 0.98328 2.196 2.196 l0 16.196 c0 1.2128 -0.98328 2.196 -2.196 2.196 s-2.196 -0.98328 -2.196 -2.196 l0 -16.196 c0 -1.2128 0.98328 -2.196 2.196 -2.196 z M144.9114 15.036000000000001 c-0.054884 -0.13176 -0.096056 -0.2718 -0.12352 -0.4118 c-0.030195 -0.14 -0.043908 -0.28551 -0.043908 -0.42824 s0.013711 -0.28824 0.043908 -0.42824 c0.027461 -0.14 0.068632 -0.28 0.12352 -0.41176 s0.12352 -0.26078 0.20312 -0.37883 c0.079608 -0.12078 0.1702 -0.23332 0.27176 -0.33488 s0.2141 -0.19215 0.33488 -0.27176 c0.11805 -0.079608 0.24707 -0.14824 0.37883 -0.20312 s0.27176 -0.096056 0.41176 -0.12352 c0.71372 -0.14551 1.4714 0.090588 1.982 0.59844 c0.098828 0.10156 0.19215 0.2141 0.27176 0.33488 c0.079608 0.11805 0.14824 0.24707 0.20312 0.37883 s0.096056 0.27176 0.12352 0.41176 c0.030195 0.14 0.043908 0.28551 0.043908 0.42824 s-0.013711 0.28824 -0.043908 0.42824 c-0.027461 0.14 -0.068632 0.28 -0.12352 0.41176 s-0.12352 0.26078 -0.20312 0.37883 c-0.079608 0.12078 -0.17293 0.23332 -0.27176 0.33488 c-0.10156 0.10156 -0.2141 0.19215 -0.33488 0.27176 c-0.11805 0.079608 -0.24707 0.14824 -0.37883 0.20312 s-0.27176 0.096056 -0.41176 0.12352 c-0.14 0.030195 -0.28551 0.043908 -0.42824 0.043908 s-0.28824 -0.013711 -0.42824 -0.043908 c-0.14 -0.027461 -0.28 -0.068632 -0.41176 -0.12352 s-0.26078 -0.12352 -0.37883 -0.20312 c-0.12078 -0.079608 -0.23332 -0.1702 -0.33488 -0.27176 s-0.19215 -0.2141 -0.27176 -0.33488 c-0.079608 -0.11805 -0.14824 -0.24707 -0.20312 -0.37883 z M169.23999999999998 19.412 c1.2128 0 2.196 0.98328 2.196 2.196 l0 16.196 c0 1.2128 -0.98328 2.196 -2.196 2.196 c-1.1071 0 -2.0201 -0.81968 -2.1716 -1.885 c-1.677 1.1856 -3.721 1.885 -5.9264 1.885 c-5.6764 0 -10.294 -4.6176 -10.294 -10.294 s4.6176 -10.294 10.294 -10.294 c2.2054 0 4.2492 0.69944 5.9264 1.885 c0.15152 -1.0654 1.0645 -1.885 2.1716 -1.885 z M161.142 35.608 c3.2543 0 5.902 -2.6476 5.902 -5.902 s-2.6476 -5.902 -5.902 -5.902 s-5.902 2.6476 -5.902 5.902 s2.6476 5.902 5.902 5.902 z"></path></g>
			</g>
		</svg>
	